<svg width="215" height="24" viewBox="0 0 215 24" fill="none" xmlns="http://www.w3.org/2000/svg">
<g clip-path="url(#clip0_10_2)">
<path d="M69.7742 8.992H78.1262V11.56H69.7742V8.992ZM70.0142 16.192H79.4942V18.808H66.8942V2.008H79.1582V4.624H70.0142V16.192ZM80.7214 18.808L86.3614 11.464L86.3134 13.072L80.9374 5.992H84.2734L88.0414 11.032H86.7694L90.5614 5.992H93.8014L88.3774 13.072L88.4014 11.464L94.0174 18.808H90.6334L86.6734 13.456L87.9214 13.624L84.0334 18.808H80.7214ZM103.335 18.976C102.295 18.976 101.343 18.736 100.479 18.256C99.6312 17.776 98.9512 17.056 98.4392 16.096C97.9432 15.12 97.6952 13.888 97.6952 12.4C97.6952 10.896 97.9352 9.664 98.4152 8.704C98.9112 7.744 99.5832 7.032 100.431 6.568C101.279 6.088 102.247 5.848 103.335 5.848C104.599 5.848 105.711 6.12 106.671 6.664C107.647 7.208 108.415 7.968 108.975 8.944C109.551 9.92 109.839 11.072 109.839 12.4C109.839 13.728 109.551 14.888 108.975 15.88C108.415 16.856 107.647 17.616 106.671 18.16C105.711 18.704 104.599 18.976 103.335 18.976ZM96.2312 23.464V5.992H99.0872V9.016L98.9912 12.424L99.2312 15.832V23.464H96.2312ZM102.999 16.408C103.719 16.408 104.359 16.248 104.919 15.928C105.495 15.608 105.951 15.144 106.287 14.536C106.623 13.928 106.791 13.216 106.791 12.4C106.791 11.568 106.623 10.856 106.287 10.264C105.951 9.656 105.495 9.192 104.919 8.872C104.359 8.552 103.719 8.392 102.999 8.392C102.279 8.392 101.631 8.552 101.055 8.872C100.479 9.192 100.023 9.656 99.6872 10.264C99.3512 10.856 99.1832 11.568 99.1832 12.4C99.1832 13.216 99.3512 13.928 99.6872 14.536C100.023 15.144 100.479 15.608 101.055 15.928C101.631 16.248 102.279 16.408 102.999 16.408ZM112.684 18.808V1H115.684V18.808H112.684ZM125.382 18.976C124.07 18.976 122.902 18.696 121.878 18.136C120.854 17.56 120.046 16.776 119.454 15.784C118.862 14.792 118.566 13.664 118.566 12.4C118.566 11.12 118.862 9.992 119.454 9.016C120.046 8.024 120.854 7.248 121.878 6.688C122.902 6.128 124.07 5.848 125.382 5.848C126.71 5.848 127.886 6.128 128.91 6.688C129.95 7.248 130.758 8.016 131.334 8.992C131.926 9.968 132.222 11.104 132.222 12.4C132.222 13.664 131.926 14.792 131.334 15.784C130.758 16.776 129.95 17.56 128.91 18.136C127.886 18.696 126.71 18.976 125.382 18.976ZM125.382 16.408C126.118 16.408 126.774 16.248 127.35 15.928C127.926 15.608 128.374 15.144 128.694 14.536C129.03 13.928 129.198 13.216 129.198 12.4C129.198 11.568 129.03 10.856 128.694 10.264C128.374 9.656 127.926 9.192 127.35 8.872C126.774 8.552 126.126 8.392 125.406 8.392C124.67 8.392 124.014 8.552 123.438 8.872C122.878 9.192 122.43 9.656 122.094 10.264C121.758 10.856 121.59 11.568 121.59 12.4C121.59 13.216 121.758 13.928 122.094 14.536C122.43 15.144 122.878 15.608 123.438 15.928C124.014 16.248 124.662 16.408 125.382 16.408ZM135.091 18.808V5.992H137.947V9.52L137.611 8.488C137.995 7.624 138.595 6.968 139.411 6.52C140.243 6.072 141.275 5.848 142.507 5.848V8.704C142.379 8.672 142.259 8.656 142.147 8.656C142.035 8.64 141.923 8.632 141.811 8.632C140.675 8.632 139.771 8.968 139.099 9.64C138.427 10.296 138.091 11.28 138.091 12.592V18.808H135.091ZM150.958 18.976C149.534 18.976 148.286 18.696 147.214 18.136C146.158 17.56 145.334 16.776 144.742 15.784C144.166 14.792 143.878 13.664 143.878 12.4C143.878 11.12 144.158 9.992 144.718 9.016C145.294 8.024 146.078 7.248 147.07 6.688C148.078 6.128 149.222 5.848 150.502 5.848C151.75 5.848 152.862 6.12 153.838 6.664C154.814 7.208 155.582 7.976 156.142 8.968C156.702 9.96 156.982 11.128 156.982 12.472C156.982 12.6 156.974 12.744 156.958 12.904C156.958 13.064 156.95 13.216 156.934 13.36H146.254V11.368H155.35L154.174 11.992C154.19 11.256 154.038 10.608 153.718 10.048C153.398 9.488 152.958 9.048 152.398 8.728C151.854 8.408 151.222 8.248 150.502 8.248C149.766 8.248 149.118 8.408 148.558 8.728C148.014 9.048 147.582 9.496 147.262 10.072C146.958 10.632 146.806 11.296 146.806 12.064V12.544C146.806 13.312 146.982 13.992 147.334 14.584C147.686 15.176 148.182 15.632 148.822 15.952C149.462 16.272 150.198 16.432 151.03 16.432C151.75 16.432 152.398 16.32 152.974 16.096C153.55 15.872 154.062 15.52 154.51 15.04L156.118 16.888C155.542 17.56 154.814 18.08 153.934 18.448C153.07 18.8 152.078 18.976 150.958 18.976Z" fill="#FF6452"/>
<path d="M176.928 1.728V18.528H174.36L165.096 7.152V18.528H162V1.728H164.568L173.832 13.104V1.728H176.928ZM181.142 5.712H184.142V18.528H181.142V5.712ZM182.654 3.6C182.11 3.6 181.654 3.432 181.286 3.096C180.918 2.744 180.734 2.312 180.734 1.8C180.734 1.288 180.918 0.864 181.286 0.528C181.654 0.176 182.11 0 182.654 0C183.198 0 183.654 0.168 184.022 0.504C184.39 0.824 184.574 1.232 184.574 1.728C184.574 2.256 184.39 2.704 184.022 3.072C183.67 3.424 183.214 3.6 182.654 3.6ZM193.311 13.032L191.079 15.144V18.528H188.079V0.72H191.079V11.472L197.295 5.712H200.895L195.543 11.088L201.399 18.528H197.751L193.311 13.032ZM214.846 12.192C214.846 12.4 214.83 12.696 214.798 13.08H204.742C204.918 14.024 205.374 14.776 206.11 15.336C206.862 15.88 207.79 16.152 208.894 16.152C210.302 16.152 211.462 15.688 212.374 14.76L213.982 16.608C213.406 17.296 212.678 17.816 211.798 18.168C210.918 18.52 209.926 18.696 208.822 18.696C207.414 18.696 206.174 18.416 205.102 17.856C204.03 17.296 203.198 16.52 202.606 15.528C202.03 14.52 201.742 13.384 201.742 12.12C201.742 10.872 202.022 9.752 202.582 8.76C203.158 7.752 203.95 6.968 204.958 6.408C205.966 5.848 207.102 5.568 208.366 5.568C209.614 5.568 210.726 5.848 211.702 6.408C212.694 6.952 213.462 7.728 214.006 8.736C214.566 9.728 214.846 10.88 214.846 12.192ZM208.366 7.968C207.406 7.968 206.59 8.256 205.918 8.832C205.262 9.392 204.862 10.144 204.718 11.088H211.99C211.862 10.16 211.47 9.408 210.814 8.832C210.158 8.256 209.342 7.968 208.366 7.968Z" fill="#FF6452"/>
<path fill-rule="evenodd" clip-rule="evenodd" d="M37.6096 7.34534C25.1346 10.8165 14.071 13.6527 13.0239 13.6472C10.0114 13.6311 7.19208 11.2422 6.76805 8.34706C6.56892 6.98491 6.60401 5.00994 6.84617 3.9588L7.28658 2.04719L5.67182 4.07298C3.16985 7.2119 0.775388 12.1487 0.291432 15.1664C-0.659277 21.0927 4.08623 25.0007 10.4653 23.5446C12.9937 22.9678 60.9554 2.09731 61.8216 1.19702C62.4835 0.509374 58.9453 1.40792 37.6096 7.34534Z" fill="#FF6452"/>
</g>
<defs>
<clipPath id="clip0_10_2">
<rect width="215" height="24" fill="white"/>
</clipPath>
</defs>
</svg>
